<svg xmlns="http://www.w3.org/2000/svg" viewBox="0 0 222.84 210.98"><defs><style>.cls-1{fill:#924dff;}.cls-2{fill:#a764ff;}.cls-3{fill:#fff;}.cls-4{fill:#a59580;}.cls-5{fill:#35211b;}.cls-6{fill:#212222;}.cls-7{fill:#763fe0;}</style></defs><g id="Layer_2" data-name="Layer 2"><g id="Layer_1-2" data-name="Layer 1"><path class="cls-1" d="M129.37,111.69c-18.49-15.86-38.8-30.45-62.53-37.15A173.72,173.72,0,0,0,4.76,69.13l3.6,11.29,6.42,20.11L47.86,204.2a9.74,9.74,0,0,0,12.25,6.32L127.51,189l67.21-21.44A9.75,9.75,0,0,0,201,155.32L199,149a69.26,69.26,0,0,1-10.08-.73C163.46,144.44,147.93,127.61,129.37,111.69Z"/><path class="cls-2" d="M197.49,112.13l18.56-5.92A9.74,9.74,0,0,0,222.37,94L211,58.37a9.76,9.76,0,0,0-12.25-6.32L180.21,58A9.76,9.76,0,0,1,168,51.65l-6.42-20.11-7.9-24.76A9.75,9.75,0,0,0,141.4.46L102.71,12.81a9.75,9.75,0,0,0-6.32,12.24l4.94,15.48A9.74,9.74,0,0,1,95,52.77L85.05,56,74.9,59.19a9.74,9.74,0,0,1-12.25-6.32L57.71,37.4a9.75,9.75,0,0,0-12.24-6.33L6.78,43.42A9.75,9.75,0,0,0,.46,55.66l4.3,13.47a173.72,173.72,0,0,1,62.08,5.41c23.73,6.7,44,21.29,62.53,37.15s34.09,32.75,59.57,36.56A69.26,69.26,0,0,0,199,149l-7.86-24.6A9.76,9.76,0,0,1,197.49,112.13Z"/><path class="cls-3" d="M91,101.56c-6.46,5.36-11.16,13.28-11,21.7.56,29.77,46.59,19.18,55-.53,9.89-23.24-21.45-33.61-38-25.11a33.59,33.59,0,0,0-6,3.94"/><path class="cls-4" d="M89.74,119.36a1.57,1.57,0,1,1-2-1,1.57,1.57,0,0,1,2,1"/><path class="cls-4" d="M88,127.58a1.57,1.57,0,1,1-2-1,1.57,1.57,0,0,1,2,1"/><path class="cls-4" d="M94.48,123.88a1.57,1.57,0,1,1-3,1,1.57,1.57,0,0,1,1-2,1.59,1.59,0,0,1,2,1"/><path class="cls-4" d="M126.71,106a1.57,1.57,0,1,1-2-1,1.56,1.56,0,0,1,2,1"/><path class="cls-4" d="M123.94,112.89a1.57,1.57,0,1,1-2-1,1.56,1.56,0,0,1,2,1"/><path class="cls-4" d="M132.14,112.69a1.57,1.57,0,1,1-2-1,1.57,1.57,0,0,1,2,1"/><path class="cls-5" d="M110.29,127.55a29.58,29.58,0,0,1-6.38,1.26,1.31,1.31,0,1,1-.18-2.61c.08,0,7.73-.56,11.63-4.35a1.31,1.31,0,1,1,1.83,1.88A17.53,17.53,0,0,1,110.29,127.55Z"/><path class="cls-6" d="M108.47,97.56a7.69,7.69,0,1,1-9.66-5,7.69,7.69,0,0,1,9.66,5"/><path class="cls-6" d="M86.92,84.71a3.6,3.6,0,1,1-4.52-2.34,3.6,3.6,0,0,1,4.52,2.34"/><path class="cls-6" d="M110.34,77.28a3.6,3.6,0,1,1-4.52-2.34,3.6,3.6,0,0,1,4.52,2.34"/><path class="cls-3" d="M17,123.12s68.5,17.91,177.77-3.7l11.51,36.09s-123.51,26.16-176.8,6.71Z"/><path class="cls-7" d="M81.28,157.33a9.63,9.63,0,0,1-6.47,2,9.59,9.59,0,0,1-2.59-.49,9.94,9.94,0,0,1-2.29-1.12,10.16,10.16,0,0,1-1.88-1.64A9.76,9.76,0,0,1,66.67,154a9.43,9.43,0,0,1-.79-2.35,9.09,9.09,0,0,1-.13-2.56,9.46,9.46,0,0,1,.55-2.5,9.63,9.63,0,0,1,1.14-2.21,10.06,10.06,0,0,1,1.63-1.82,9.74,9.74,0,0,1,2-1.36,9.54,9.54,0,0,1,2.28-.82,9,9,0,0,1,2.49-.19,9.26,9.26,0,0,1,6,2.56l-2.06,3.15a5.54,5.54,0,0,0-1.83-1.43,5.87,5.87,0,0,0-4.55-.26,6.35,6.35,0,0,0-1.93,1.14,6,6,0,0,0-1.38,1.78,5.76,5.76,0,0,0-.32,4.55,5.81,5.81,0,0,0,1.15,2A6.07,6.07,0,0,0,72.69,155a6,6,0,0,0,2.32.6,6.17,6.17,0,0,0,2.38-.35,5.65,5.65,0,0,0,2-1.26C80.15,155.35,80.52,156,81.28,157.33Z"/><path class="cls-7" d="M87.23,159.38c-1.53,0-2.29,0-3.81-.09.21-7.39.32-11.09.54-18.49,1.44,0,2.16.06,3.6.09-.06,3-.08,4.44-.14,7.4,3,.05,4.42.06,7.36.05,0-3,0-4.44,0-7.4l3.6,0c.11,7.4.17,11.1.29,18.49-1.52,0-2.28,0-3.81,0,0-3,0-4.43,0-7.39-3,0-4.47,0-7.44,0C87.3,155,87.28,156.43,87.23,159.38Z"/><path class="cls-7" d="M115.2,158.73c-5.2.34-7.81.45-13,.59-.19-7.4-.29-11.09-.48-18.49,4.93-.13,7.39-.24,12.32-.56.09,1.48.14,2.22.23,3.69-3.52.23-5.29.32-8.82.45.06,1.48.09,2.22.14,3.7,2.42-.09,3.63-.14,6-.28.08,1.48.12,2.22.21,3.7-2.44.13-3.67.19-6.11.28.06,1.48.08,2.21.14,3.69,3.65-.14,5.47-.23,9.12-.47C115.06,156.51,115.1,157.25,115.2,158.73Z"/><path class="cls-7" d="M132.3,155.27a9.49,9.49,0,0,1-2.75,2,9.78,9.78,0,0,1-8.39.08,10,10,0,0,1-2.1-1.34,9.67,9.67,0,0,1-1.67-1.83,9.1,9.1,0,0,1-1.65-4.71,9.82,9.82,0,0,1,4.06-8.6,9.56,9.56,0,0,1,2.13-1.16,9,9,0,0,1,2.43-.57,9.19,9.19,0,0,1,3.26.26,9,9,0,0,1,3,1.38c-.62,1.37-.93,2.05-1.56,3.42a5.58,5.58,0,0,0-2-1.14,5.86,5.86,0,0,0-2.32-.23,5.49,5.49,0,0,0-2.2.67,6.09,6.09,0,0,0-1.73,1.41,6,6,0,0,0-1.09,2,5.87,5.87,0,0,0,.36,4.55,5.94,5.94,0,0,0,1.43,1.75,6.1,6.1,0,0,0,2,1.1,6.05,6.05,0,0,0,4.68-.47A5.54,5.54,0,0,0,130,152.3Z"/><path class="cls-7" d="M138.49,156.41l-3.78.49c-.91-7.35-1.36-11-2.26-18.36l3.57-.46c.49,3.66.74,5.5,1.23,9.16,2.24-4,3.32-6.06,5.4-10.13,1.62-.25,2.43-.38,4-.65-1.72,3.46-2.61,5.18-4.45,8.61,2.94,3.88,4.45,5.81,7.54,9.63l-4.28.69c-2.11-2.7-3.15-4.06-5.2-6.79-.91,1.66-1.37,2.49-2.31,4.14Z"/></g></g></svg>