<?xml version="1.0" standalone="no"?>
<!DOCTYPE svg PUBLIC "-//W3C//DTD SVG 20010904//EN"
 "http://www.w3.org/TR/2001/REC-SVG-20010904/DTD/svg10.dtd">
<svg version="1.0" xmlns="http://www.w3.org/2000/svg"
 width="1280.000000pt" height="1130.000000pt" viewBox="-660 0 1280.000000 1130.000000"
 preserveAspectRatio="xMidYMid meet">
<metadata>
Created by potrace 1.15, written by Peter Selinger 2001-2017
</metadata>
<g transform="translate(0.000000,1130.000000) scale(0.1,-0.1) rotate(60)"
fill="#fff" stroke="none">
<path d="M6266 11289 c-200 -27 -402 -141 -536 -301 -38 -46 -432 -718 -1284
-2194 -3554 -6153 -4323 -7485 -4358 -7554 -61 -121 -81 -211 -81 -375 -1
-115 3 -154 21 -220 91 -327 350 -567 681 -629 75 -14 614 -16 5691 -16 5077
0 5616 2 5691 16 331 62 590 302 681 629 18 66 22 105 21 220 0 164 -20 254
-81 375 -21 41 -756 1317 -1633 2835 -877 1518 -2126 3680 -2775 4804 -817
1416 -1196 2063 -1234 2109 -112 134 -277 239 -445 283 -93 24 -256 32 -359
18z"/>
</g>
</svg>
